<svg width="1160" height="935" xmlns="http://www.w3.org/2000/svg" xmlns:xlink="http://www.w3.org/1999/xlink" xml:space="preserve" overflow="hidden"><g transform="translate(-545 -550)"><g><path d="M574 1445.84 1645.04 1445.84 1645.04 1456.16 574 1456.16ZM1639.88 1435.53 1670.82 1451 1639.88 1466.47Z" fill="#000000" fill-rule="nonzero" fill-opacity="1"/><path d="M5.15625-2.13546e-06 5.1566 845.625-5.1559 845.625-5.15625 2.13546e-06ZM15.4691 840.469 0.000360892 871.406-15.4684 840.469Z" fill="#000000" fill-rule="nonzero" fill-opacity="1" transform="matrix(1 0 0 -1 577 1453.41)"/><path d="M678.5 963C678.5 941.185 695.513 923.5 716.5 923.5 737.487 923.5 754.5 941.185 754.5 963 754.5 984.815 737.487 1002.5 716.5 1002.5 695.513 1002.5 678.5 984.815 678.5 963Z" stroke="#2F528F" stroke-width="4.58333" stroke-linecap="butt" stroke-linejoin="miter" stroke-miterlimit="8" stroke-opacity="1" fill="#000000" fill-rule="evenodd" fill-opacity="1"/><path d="M902.5 659C902.5 637.185 919.513 619.5 940.5 619.5 961.487 619.5 978.5 637.185 978.5 659 978.5 680.815 961.487 698.5 940.5 698.5 919.513 698.5 902.5 680.815 902.5 659Z" stroke="#2F528F" stroke-width="4.58333" stroke-linecap="butt" stroke-linejoin="miter" stroke-miterlimit="8" stroke-opacity="1" fill="#000000" fill-rule="evenodd" fill-opacity="1"/><path d="M931.5 892C931.5 870.185 948.289 852.5 969 852.5 989.711 852.5 1006.5 870.185 1006.5 892 1006.5 913.815 989.711 931.5 969 931.5 948.289 931.5 931.5 913.815 931.5 892Z" stroke="#2F528F" stroke-width="4.58333" stroke-linecap="butt" stroke-linejoin="miter" stroke-miterlimit="8" stroke-opacity="1" fill="#000000" fill-rule="evenodd" fill-opacity="1"/><path d="M1403.5 917C1403.5 895.185 1420.51 877.5 1441.5 877.5 1462.49 877.5 1479.5 895.185 1479.5 917 1479.5 938.815 1462.49 956.5 1441.5 956.5 1420.51 956.5 1403.5 938.815 1403.5 917Z" stroke="#2F528F" stroke-width="4.58333" stroke-linecap="butt" stroke-linejoin="miter" stroke-miterlimit="8" stroke-opacity="1" fill="#4472C4" fill-rule="evenodd" fill-opacity="1"/><path d="M929.5 1351C929.5 1329.18 946.289 1311.5 967 1311.5 987.711 1311.5 1004.5 1329.18 1004.5 1351 1004.5 1372.82 987.711 1390.5 967 1390.5 946.289 1390.5 929.5 1372.82 929.5 1351Z" stroke="#2F528F" stroke-width="4.58333" stroke-linecap="butt" stroke-linejoin="miter" stroke-miterlimit="8" stroke-opacity="1" fill="#4472C4" fill-rule="evenodd" fill-opacity="1"/><path d="M969.5 1059C969.5 1037.18 986.289 1019.5 1007 1019.5 1027.71 1019.5 1044.5 1037.18 1044.5 1059 1044.5 1080.82 1027.71 1098.5 1007 1098.5 986.289 1098.5 969.5 1080.82 969.5 1059Z" stroke="#2F528F" stroke-width="4.58333" stroke-linecap="butt" stroke-linejoin="miter" stroke-miterlimit="8" stroke-opacity="1" fill="#4472C4" fill-rule="evenodd" fill-opacity="1"/><path d="M1114.5 1142.5C1114.5 1120.96 1131.29 1103.5 1152 1103.5 1172.71 1103.5 1189.5 1120.96 1189.5 1142.5 1189.5 1164.04 1172.71 1181.5 1152 1181.5 1131.29 1181.5 1114.5 1164.04 1114.5 1142.5Z" stroke="#2F528F" stroke-width="4.58333" stroke-linecap="butt" stroke-linejoin="miter" stroke-miterlimit="8" stroke-opacity="1" fill="#4472C4" fill-rule="evenodd" fill-opacity="1"/><path d="M1076.5 982.5C1076.5 960.961 1093.29 943.5 1114 943.5 1134.71 943.5 1151.5 960.961 1151.5 982.5 1151.5 1004.04 1134.71 1021.5 1114 1021.5 1093.29 1021.5 1076.5 1004.04 1076.5 982.5Z" stroke="#000000" stroke-width="4.58333" stroke-linecap="butt" stroke-linejoin="miter" stroke-miterlimit="8" stroke-opacity="1" fill="#FFFFFF" fill-rule="evenodd" fill-opacity="1"/><path d="M1378.5 1314C1378.5 1292.18 1395.51 1274.5 1416.5 1274.5 1437.49 1274.5 1454.5 1292.18 1454.5 1314 1454.5 1335.82 1437.49 1353.5 1416.5 1353.5 1395.51 1353.5 1378.5 1335.82 1378.5 1314Z" stroke="#2F528F" stroke-width="4.58333" stroke-linecap="butt" stroke-linejoin="miter" stroke-miterlimit="8" stroke-opacity="1" fill="#4472C4" fill-rule="evenodd" fill-opacity="1"/><path d="M1466.5 1150C1466.5 1128.18 1483.51 1110.5 1504.5 1110.5 1525.49 1110.5 1542.5 1128.18 1542.5 1150 1542.5 1171.82 1525.49 1189.5 1504.5 1189.5 1483.51 1189.5 1466.5 1171.82 1466.5 1150Z" stroke="#2F528F" stroke-width="4.58333" stroke-linecap="butt" stroke-linejoin="miter" stroke-miterlimit="8" stroke-opacity="1" fill="#4472C4" fill-rule="evenodd" fill-opacity="1"/><path d="M886.5 992C886.5 865.251 985.445 762.5 1107.5 762.5 1229.56 762.5 1328.5 865.251 1328.5 992 1328.5 1118.75 1229.56 1221.5 1107.5 1221.5 985.445 1221.5 886.5 1118.75 886.5 992Z" stroke="#000000" stroke-width="4.58333" stroke-linecap="butt" stroke-linejoin="miter" stroke-miterlimit="8" stroke-opacity="1" fill="none" fill-rule="evenodd"/><path d="M1083.1 958.702 1023.15 911.925 1029.5 903.794 1089.45 950.571ZM1020.88 923.227 1006 892 1039.91 898.836Z" fill="#000000" fill-rule="nonzero" fill-opacity="1"/><path d="M3.88479-3.39048 29.3228 25.7563 21.5532 32.5372-3.88479 3.39048ZM33.7019 15.0905 42.3904 48.5707 10.3932 35.4334Z" fill="#000000" fill-rule="nonzero" fill-opacity="1" transform="matrix(-1 0 0 1 1075.39 982)"/><path d="M1118.67 1018.82 1145.66 1076.69 1136.32 1081.05 1109.33 1023.18ZM1152.83 1067.66 1151.89 1102.23 1124.79 1080.73Z" fill="#000000" fill-rule="nonzero" fill-opacity="1"/><path d="M1108.64 944.923 974.36 710.927 983.304 705.794 1117.59 939.79ZM967.982 720.532 966 686 994.815 705.134Z" fill="#000000" fill-rule="nonzero" fill-opacity="1"/><path d="M0.736724-5.10335 237.728 29.1089 236.254 39.3156-0.736724 5.10335ZM234.098 18.1655 262.508 37.8959 229.677 48.7856Z" fill="#000000" fill-rule="nonzero" fill-opacity="1" transform="matrix(1 0 0 -1 1140 953.896)"/><path d="M1143.83 1006.55 1375.13 1263.16 1367.47 1270.06 1136.17 1013.45ZM1379.34 1252.42 1388.56 1285.76 1356.36 1273.14Z" fill="#000000" fill-rule="nonzero" fill-opacity="1"/><path d="M1153.42 977.446 1445.68 1132.56 1440.84 1141.67 1148.58 986.555ZM1445.96 1121.03 1466.03 1149.2 1431.45 1148.36Z" fill="#000000" fill-rule="nonzero" fill-opacity="1"/><path d="M4.94033-1.47651 91.0932 286.787 81.2125 289.74-4.94033 1.47651ZM99.4973 278.893 93.5354 312.965 69.8553 287.752Z" fill="#000000" fill-rule="nonzero" fill-opacity="1" transform="matrix(-1 0 0 1 1086.54 1010)"/><path d="M1075.09 986.942 779.416 968.732 780.049 958.438 1075.73 976.649ZM783.928 979.341 754 962 785.83 948.462Z" fill="#000000" fill-rule="nonzero" fill-opacity="1"/></g></g></svg>